<svg xmlns="http://www.w3.org/2000/svg" width="24" height="24" fill="none"><path fill="#000" d="M12 10.875C11.004 8.893 8.291 5.2 5.769 3.379 3.352 1.634 2.431 1.936 1.827 2.217 1.127 2.538 1 3.637 1 4.282s.347 5.297.572 6.074c.747 2.565 3.404 3.431 5.851 3.154l.38-.053-.38.053c-3.586.544-6.771 1.88-2.594 6.636 4.595 4.866 6.297-1.043 7.171-4.039.874 2.995 1.879 8.692 7.089 4.039 3.911-4.039 1.074-6.092-2.512-6.636l-.38-.053.38.053c2.448.278 5.104-.589 5.851-3.154.226-.776.572-5.428.572-6.073s-.127-1.745-.827-2.068c-.604-.279-1.525-.581-3.942 1.163-2.523 1.823-5.235 5.516-6.232 7.497z"/></svg>